Coordinates
version=1
nRows=14
nColumns=24
inDegrees=yes

Units are S.I. units (second, meters, Newtons, ...)
Angles are in degrees.

endheader
time	pelvis_tilt	pelvis_list	pelvis_rotation	pelvis_tx	pelvis_ty	pelvis_tz	hip_flexion_r	hip_adduction_r	hip_rotation_r	knee_angle_r	ankle_angle_r	subtalar_angle_r	mtp_angle_r	hip_flexion_l	hip_adduction_l	hip_rotation_l	knee_angle_l	ankle_angle_l	subtalar_angle_l	mtp_angle_l	lumbar_extension	lumbar_bending	lumbar_rotation
      4.41000000	    -19.94049976	     -4.32937384	      0.08656772	     -1.47088852	     -0.01395686	     -0.33216593	     25.46361894	     10.40430555	     -6.51562985	    -19.05182892	      5.93316125	    -12.26148117	      1.62266705	     34.72631827	     -7.10448191	     -1.89436848	    -56.14660098	     -4.74455254	     -7.04654153	     15.24276708	     20.29822592	      3.41494527	    -11.88922843
      4.41500000	    -19.94936186	     -4.06051221	     -0.04440309	     -1.46532670	     -0.01284677	     -0.33186980	     24.81487579	     10.19186444	     -6.44685168	    -18.60823095	      5.90606312	    -11.85573666	      1.62420539	     35.21483778	     -6.82708226	     -2.05776943	    -55.36374028	     -4.34861614	     -7.09526636	     15.18802668	     20.26316887	      3.25425843	    -11.58767047
      4.42000000	    -19.95602206	     -3.79733528	     -0.18883041	     -1.45979624	     -0.01178475	     -0.33157840	     24.18574845	      9.97953519	     -6.40710117	    -18.19482109	      5.87525141	    -11.42435414	      1.65858815	     35.68504446	     -6.57416818	     -2.25382839	    -54.53906093	     -3.97625727	     -7.12768368	     15.09859942	     20.22012211	      3.10654429	    -11.26496167
      4.42500000	    -19.96937373	     -3.53988542	     -0.33256113	     -1.45429678	     -0.01077852	     -0.33130344	     23.58267435	      9.76412812	     -6.37004340	    -17.80578062	      5.84301515	    -10.98724064	      1.72601250	     36.14580239	     -6.33474574	     -2.46149982	    -53.66696690	     -3.61930306	     -7.13059550	     14.99355716	     20.18147278	      2.96534068	    -10.95718040
      4.43000000	    -19.96637322	     -3.28699885	     -0.49094257	     -1.44880685	     -0.00980553	     -0.33102822	     22.97822731	      9.54878010	     -6.36473553	    -17.43918659	      5.81095539	    -10.51843242	      1.84085519	     36.57165339	     -6.12275908	     -2.71439459	    -52.75741732	     -3.28966795	     -7.11459358	     14.86549564	     20.12284902	      2.83412031	    -10.61703957
      4.43500000	    -19.98920717	     -3.03471359	     -0.64844777	     -1.44335905	     -0.00890899	     -0.33079927	     22.42550190	      9.32612559	     -6.33284493	    -17.10731555	      5.76014886	    -10.08144497	      1.96233694	     37.00496136	     -5.90418399	     -2.94453608	    -51.79915984	     -2.94206635	     -7.02419197	     14.77606122	     20.08501180	      2.70360656	    -10.33724370
      4.44000000	    -19.95834636	     -2.78339113	     -0.83190072	     -1.43789582	     -0.00801057	     -0.33052874	     21.82023884	      9.10439583	     -6.35159629	    -16.77912150	      5.74028034	     -9.56701733	      2.17702757	     37.36179909	     -5.73124882	     -3.27217243	    -50.80912995	     -2.64654885	     -6.93385966	     14.65505290	     19.99198243	      2.58577634	     -9.95736256
      4.44500000	    -19.98855796	     -2.54091198	     -0.98840602	     -1.43249375	     -0.00723231	     -0.33033041	     21.30782575	      8.88039583	     -6.31663518	    -16.49066439	      5.68263392	     -9.15820883	      2.33128790	     37.77012865	     -5.53359238	     -3.51400850	    -49.77229147	     -2.31587818	     -6.71689706	     14.61741137	     19.95788934	      2.46791754	     -9.69965128
      4.45000000	    -19.95577599	     -2.28930534	     -1.19576549	     -1.42706870	     -0.00645758	     -0.33006447	     20.72866348	      8.65600787	     -6.32210583	    -16.20055103	      5.66597284	     -8.65920571	      2.57329965	     38.08926798	     -5.38986343	     -3.89129289	    -48.71495054	     -2.02281708	     -6.49566039	     14.58682767	     19.85351339	      2.35744974	     -9.31140886
      4.45500000	    -19.89429524	     -2.03648789	     -1.37149624	     -1.42164631	     -0.00569247	     -0.32991228	     20.12195752	      8.40865941	     -6.28796643	    -15.90963186	      5.64142962	     -8.19060953	      2.95899522	     38.35103194	     -5.20123979	     -4.20178269	    -47.59906203	     -1.74348385	     -6.26239417	     14.58107892	     19.72022426	      2.24147807	     -9.00551639
      4.46000000	    -19.92179083	     -1.81471116	     -1.57085070	     -1.41628043	     -0.00511441	     -0.32965915	     19.63722636	      8.21103151	     -6.26237808	    -15.65925117	      5.58997893	     -7.79127031	      3.14031800	     38.71549851	     -5.08536785	     -4.53868176	    -46.49301302	     -1.44716065	     -5.82396387	     14.67011845	     19.67618972	      2.15356814	     -8.67597736
      4.46500000	    -19.90652524	     -1.57435491	     -1.77873142	     -1.41090284	     -0.00454320	     -0.32944652	     19.11021306	      7.98813292	     -6.20307990	    -15.41724968	      5.56952136	     -7.36713512	      3.33635144	     39.00312388	     -4.94912851	     -4.89336283	    -45.34024172	     -1.17591858	     -5.38932256	     14.78896290	     19.58687639	      2.05362967	     -8.34175684
      4.47000000	    -19.85955716	     -1.34026148	     -1.98948382	     -1.40554206	     -0.00399659	     -0.32927669	     18.54988582	      7.76437657	     -6.10989233	    -15.17092641	      5.55299685	     -6.93171509	      3.57430297	     39.23921621	     -4.80905948	     -5.22784857	    -44.15776584	     -0.93933384	     -4.95121246	     14.96466471	     19.45629474	      1.96499591	     -8.01705178
      4.47500000	    -19.85753154	     -1.12633221	     -2.19511274	     -1.40017689	     -0.00359542	     -0.32906265	     18.05225365	      7.56515639	     -6.07064004	    -14.94767167	      5.53815506	     -6.55935417	      3.73304671	     39.52170791	     -4.70509483	     -5.59235228	    -42.97805636	     -0.68599094	     -4.39819583	     15.15792735	     19.37915248	      1.88497278	     -7.71377612
